# xmcd
#
# Track frame offsets:
#	200
#	15817
#	30695
#	43735
#	60217
#	72815
#	85892
#	97357
#	109095
#	121250
#	133522
#	154555
#
# Disc length: 2267 seconds
# Revision: 4
# Processed by: cddbd v1.5.2PL0 Copyright (c) Steve Scherf et al.
# Submitted via: dBpowerAMP V12.0
#
DISCID=8f08d90c
DTITLE=Snooks Eaglin - Out of Nowhere
DYEAR=1988
DGENRE=Blues
TTITLE0=Oh Lawdy, my Baby
TTITLE1=Lipstick Traces
TTITLE2=Young Girl
TTITLE3=Out of Nowhere
TTITLE4=You're so Fine
TTITLE5=Mailman Blues
TTITLE6=Wella Wella Baby-la
TTITLE7=Kiss of Fire
TTITLE8=It's Your Thing
TTITLE9=Playgirl
TTITLE10=West Side Baby
TTITLE11=Cheeta
EXTD=
EXTT0=
EXTT1=
EXTT2=
EXTT3=
EXTT4=
EXTT5=
EXTT6=
EXTT7=
EXTT8=
EXTT9=
EXTT10=
EXTT11=
PLAYORDER=
